<?xml version="1.0" encoding="UTF-8"?>
<svg version="1.1" xmlns="http://www.w3.org/2000/svg" width="1834" height="314">
<path d="M0 0 C37.29 0 74.58 0 113 0 C113 5.94 113 11.88 113 18 C118.94 18 124.88 18 131 18 C131 30.87 131 43.74 131 57 C125.06 57 119.12 57 113 57 C113 62.61 113 68.22 113 74 C118.94 74 124.88 74 131 74 C131 86.87 131 99.74 131 113 C125.06 113 119.12 113 113 113 C113 118.94 113 124.88 113 131 C75.71 131 38.42 131 0 131 C0 87.77 0 44.54 0 0 Z M39 20 C39 31.55 39 43.1 39 55 C56.49 55 73.98 55 92 55 C92 43.45 92 31.9 92 20 C74.51 20 57.02 20 39 20 Z M39 76 C39 87.55 39 99.1 39 111 C56.49 111 73.98 111 92 111 C92 99.45 92 87.9 92 76 C74.51 76 57.02 76 39 76 Z " fill="#000000" transform="translate(34,79)"/>
<path d="M0 0 C31.02 0 62.04 0 94 0 C94 5.94 94 11.88 94 18 C100.27 18 106.54 18 113 18 C113 24.27 113 30.54 113 37 C118.94 37 124.88 37 131 37 C131 55.81 131 74.62 131 94 C125.06 94 119.12 94 113 94 C113 100.27 113 106.54 113 113 C106.73 113 100.46 113 94 113 C94 118.94 94 124.88 94 131 C62.98 131 31.96 131 0 131 C0 87.77 0 44.54 0 0 Z M39 20 C39 50.03 39 80.06 39 111 C50.55 111 62.1 111 74 111 C74 104.73 74 98.46 74 92 C79.94 92 85.88 92 92 92 C92 74.51 92 57.02 92 39 C86.06 39 80.12 39 74 39 C74 32.73 74 26.46 74 20 C62.45 20 50.9 20 39 20 Z " fill="#000000" transform="translate(626,79)"/>
<path d="M0 0 C12.87 0 25.74 0 39 0 C39 12.21 39 24.42 39 37 C63.42 37 87.84 37 113 37 C113 42.94 113 48.88 113 55 C118.94 55 124.88 55 131 55 C131 74.14 131 93.28 131 113 C125.06 113 119.12 113 113 113 C113 118.94 113 124.88 113 131 C81.65 131 50.3 131 18 131 C18 125.06 18 119.12 18 113 C12.06 113 6.12 113 0 113 C0 75.71 0 38.42 0 0 Z M39 57 C39 74.82 39 92.64 39 111 C56.49 111 73.98 111 92 111 C92 93.18 92 75.36 92 57 C74.51 57 57.02 57 39 57 Z " fill="#000000" transform="translate(1514,79)"/>
<path d="M0 0 C12.87 0 25.74 0 39 0 C39 18.15 39 36.3 39 55 C56.49 55 73.98 55 92 55 C92 36.85 92 18.7 92 0 C104.87 0 117.74 0 131 0 C131 31.02 131 62.04 131 94 C125.06 94 119.12 94 113 94 C113 100.27 113 106.54 113 113 C81.65 113 50.3 113 18 113 C18 106.07 18 99.14 18 92 C42.42 92 66.84 92 92 92 C92 86.72 92 81.44 92 76 C67.58 76 43.16 76 18 76 C18 69.73 18 63.46 18 57 C12.06 57 6.12 57 0 57 C0 38.19 0 19.38 0 0 Z " fill="#000000" transform="translate(182,116)"/>
<path d="M0 0 C31.35 0 62.7 0 95 0 C95 5.94 95 11.88 95 18 C100.94 18 106.88 18 113 18 C113 43.08 113 68.16 113 94 C75.71 94 38.42 94 0 94 C0 88.06 0 82.12 0 76 C-5.94 76 -11.88 76 -18 76 C-18 69.07 -18 62.14 -18 55 C-12.06 55 -6.12 55 0 55 C0 49.06 0 43.12 0 37 C24.42 37 48.84 37 74 37 C74 31.39 74 25.78 74 20 C49.58 20 25.16 20 0 20 C0 13.4 0 6.8 0 0 Z M21 57 C21 62.61 21 68.22 21 74 C38.49 74 55.98 74 74 74 C74 68.39 74 62.78 74 57 C56.51 57 39.02 57 21 57 Z " fill="#000000" transform="translate(1384,116)"/>
<path d="M0 0 C31.35 0 62.7 0 95 0 C95 5.94 95 11.88 95 18 C100.94 18 106.88 18 113 18 C113 30.87 113 43.74 113 57 C82.64 57 52.28 57 21 57 C21 62.61 21 68.22 21 74 C45.42 74 69.84 74 95 74 C95 80.6 95 87.2 95 94 C63.65 94 32.3 94 0 94 C0 88.06 0 82.12 0 76 C-5.94 76 -11.88 76 -18 76 C-18 56.86 -18 37.72 -18 18 C-12.06 18 -6.12 18 0 18 C0 12.06 0 6.12 0 0 Z M21 20 C21 25.61 21 31.22 21 37 C38.49 37 55.98 37 74 37 C74 31.39 74 25.78 74 20 C56.51 20 39.02 20 21 20 Z " fill="#000000" transform="translate(792,116)"/>
<path d="M0 0 C31.35 0 62.7 0 95 0 C95 5.94 95 11.88 95 18 C100.94 18 106.88 18 113 18 C113 30.87 113 43.74 113 57 C82.64 57 52.28 57 21 57 C21 62.61 21 68.22 21 74 C45.42 74 69.84 74 95 74 C95 80.6 95 87.2 95 94 C63.65 94 32.3 94 0 94 C0 88.06 0 82.12 0 76 C-5.94 76 -11.88 76 -18 76 C-18 56.86 -18 37.72 -18 18 C-12.06 18 -6.12 18 0 18 C0 12.06 0 6.12 0 0 Z M21 20 C21 25.61 21 31.22 21 37 C38.49 37 55.98 37 74 37 C74 31.39 74 25.78 74 20 C56.51 20 39.02 20 21 20 Z " fill="#000000" transform="translate(496,116)"/>
<path d="M0 0 C31.02 0 62.04 0 94 0 C94 6.6 94 13.2 94 20 C69.58 20 45.16 20 20 20 C20 25.61 20 31.22 20 37 C44.42 37 68.84 37 94 37 C94 42.94 94 48.88 94 55 C99.94 55 105.88 55 112 55 C112 61.93 112 68.86 112 76 C106.06 76 100.12 76 94 76 C94 81.94 94 87.88 94 94 C57.04 94 20.08 94 -18 94 C-18 87.4 -18 80.8 -18 74 C12.36 74 42.72 74 74 74 C74 68.39 74 62.78 74 57 C49.58 57 25.16 57 0 57 C0 51.06 0 45.12 0 39 C-5.94 39 -11.88 39 -18 39 C-18 32.07 -18 25.14 -18 18 C-12.06 18 -6.12 18 0 18 C0 12.06 0 6.12 0 0 Z " fill="#000000" transform="translate(1681,116)"/>
<path d="M0 0 C12.87 0 25.74 0 39 0 C39 18.15 39 36.3 39 55 C50.55 55 62.1 55 74 55 C74 36.85 74 18.7 74 0 C86.87 0 99.74 0 113 0 C113 18.81 113 37.62 113 57 C107.06 57 101.12 57 95 57 C95 63.27 95 69.54 95 76 C88.73 76 82.46 76 76 76 C76 81.94 76 87.88 76 94 C63.13 94 50.26 94 37 94 C37 88.06 37 82.12 37 76 C31.06 76 25.12 76 19 76 C19 69.73 19 63.46 19 57 C12.73 57 6.46 57 0 57 C0 38.19 0 19.38 0 0 Z " fill="#000000" transform="translate(940,116)"/>
<path d="M0 0 C12.87 0 25.74 0 39 0 C39 36.63 39 73.26 39 111 C63.42 111 87.84 111 113 111 C113 117.6 113 124.2 113 131 C75.71 131 38.42 131 0 131 C0 87.77 0 44.54 0 0 Z " fill="#000000" transform="translate(1236,79)"/>
<path d="M0 0 C12.87 0 25.74 0 39 0 C39 12.21 39 24.42 39 37 C51.21 37 63.42 37 76 37 C76 43.6 76 50.2 76 57 C63.79 57 51.58 57 39 57 C39 81.42 39 105.84 39 131 C26.13 131 13.26 131 0 131 C0 106.58 0 82.16 0 57 C-12.21 57 -24.42 57 -37 57 C-37 50.4 -37 43.8 -37 37 C-24.79 37 -12.58 37 0 37 C0 24.79 0 12.58 0 0 Z " fill="#000000" transform="translate(385,79)"/>
</svg>
