<?xml version="1.0" encoding="UTF-8"?>
<svg version="1.1" xmlns="http://www.w3.org/2000/svg" width="128" height="128">
<path d="M0 0 C13.53 0 27.06 0 41 0 C41 1.98 41 3.96 41 6 C41.969375 5.979375 42.93875 5.95875 43.9375 5.9375 C47 6 47 6 48 7 C48.0989294 9.16480797 48.129711 11.33293785 48.125 13.5 C48.12886719 15.27890625 48.12886719 15.27890625 48.1328125 17.09375 C48 20 48 20 47 21 C45.00041636 21.04080783 42.99954746 21.04254356 41 21 C41 22.65 41 24.3 41 26 C42.4540625 25.9690625 42.4540625 25.9690625 43.9375 25.9375 C47 26 47 26 48 27 C48.0989294 29.16480797 48.129711 31.33293785 48.125 33.5 C48.12886719 35.27890625 48.12886719 35.27890625 48.1328125 37.09375 C48 40 48 40 47 41 C45.00041636 41.04080783 42.99954746 41.04254356 41 41 C41 42.98 41 44.96 41 47 C27.47 47 13.94 47 0 47 C0 31.49 0 15.98 0 0 Z M14 7 C14 11.29 14 15.58 14 20 C20.27 20 26.54 20 33 20 C33 15.71 33 11.42 33 7 C26.73 7 20.46 7 14 7 Z M14 27 C14 31.29 14 35.58 14 40 C20.27 40 26.54 40 33 40 C33 35.71 33 31.42 33 27 C26.73 27 20.46 27 14 27 Z " fill="#76D3FC" transform="translate(14,41)"/>
<path d="M0 0 C4.62 0 9.24 0 14 0 C14 13.2 14 26.4 14 40 C22.91 40 31.82 40 41 40 C41 42.31 41 44.62 41 47 C27.47 47 13.94 47 0 47 C0 31.49 0 15.98 0 0 Z " fill="#76D4FC" transform="translate(74,41)"/>
</svg>
