<svg xmlns="http://www.w3.org/2000/svg" version="1.1" xmlns:xlink="http://www.w3.org/1999/xlink" xmlns:svgjs="http://svgjs.dev/svgjs" width="1500" height="1500" viewBox="0 0 1500 1500"><rect width="1500" height="1500" fill="#ffffff"></rect><g transform="matrix(0.6666666666666666,0,0,0.6666666666666666,249.39393939393938,630.8631578807003)"><svg viewBox="0 0 396 95" data-background-color="#010c80" preserveAspectRatio="xMidYMid meet" height="359" width="1500" xmlns="http://www.w3.org/2000/svg" xmlns:xlink="http://www.w3.org/1999/xlink"><g id="tight-bounds" transform="matrix(1,0,0,1,0.2400000000000091,-0.21030640111359844)"><svg viewBox="0 0 395.52 94.4206128022272" height="94.4206128022272" width="395.52"><g><svg viewBox="0 0 395.52 94.4206128022272" height="94.4206128022272" width="395.52"><g><svg viewBox="0 0 395.52 94.4206128022272" height="94.4206128022272" width="395.52"><g id="textblocktransform"><svg viewBox="0 0 395.52 94.4206128022272" height="94.4206128022272" width="395.52" id="textblock"><g><rect width="395.52" height="77.2789123744" fill="none" stroke-width="8.962371322224001" stroke="#000000" data-fill-palette-color="none" data-stroke-palette-color="tertiary"></rect><rect width="395.52" height="18.1417004278272" y="77.2789123744" fill="#000000" data-fill-palette-color="tertiary"></rect></g><g><svg viewBox="0 0 395.52 76.2789123744" height="76.2789123744" width="395.52"><g transform="matrix(1,0,0,1,23.461705032,23.461705031999998)"><svg width="348.596589936" viewBox="0 -50 593.72 50" height="29.3555023104" data-palette-color="#77d4fc"><path d="M37.5-6.25L0-6.25 0-50 37.5-50 37.5-43.75 43.75-43.75 43.75-31.25 37.5-31.25 37.5-25 43.75-25 43.75-12.5 37.5-12.5 37.5-6.25ZM12.5-43.75L12.5-31.25 31.25-31.25 31.25-43.75 12.5-43.75ZM12.5-25L12.5-12.5 31.25-12.5 31.25-25 12.5-25ZM87.5 0L56.25 0 56.25-6.25 81.25-6.25 81.25-12.5 56.25-12.5 56.25-18.75 50-18.75 50-37.5 62.5-37.5 62.5-18.75 81.25-18.75 81.25-37.5 93.75-37.5 93.75-6.25 87.5-6.25 87.5 0ZM131.25-6.25L118.75-6.25 118.75-31.25 106.25-31.25 106.25-37.5 118.75-37.5 118.75-50 131.25-50 131.25-37.5 143.75-37.5 143.75-31.25 131.25-31.25 131.25-6.25ZM187.49-6.25L156.24-6.25 156.24-12.5 149.99-12.5 149.99-31.25 156.24-31.25 156.24-37.5 187.49-37.5 187.49-31.25 193.74-31.25 193.74-18.75 162.49-18.75 162.49-12.5 187.49-12.5 187.49-6.25ZM162.49-31.25L162.49-25 181.24-25 181.24-31.25 162.49-31.25ZM231.24-6.25L199.99-6.25 199.99-50 231.24-50 231.24-43.75 237.49-43.75 237.49-37.5 243.74-37.5 243.74-18.75 237.49-18.75 237.49-12.5 231.24-12.5 231.24-6.25ZM212.49-43.75L212.49-12.5 224.99-12.5 224.99-18.75 231.24-18.75 231.24-37.5 224.99-37.5 224.99-43.75 212.49-43.75ZM287.49-6.25L256.24-6.25 256.24-12.5 249.99-12.5 249.99-31.25 256.24-31.25 256.24-37.5 287.49-37.5 287.49-31.25 293.74-31.25 293.74-18.75 262.49-18.75 262.49-12.5 287.49-12.5 287.49-6.25ZM262.49-31.25L262.49-25 281.24-25 281.24-31.25 262.49-31.25ZM331.24-6.25L318.74-6.25 318.74-12.5 312.49-12.5 312.49-18.75 306.24-18.75 306.24-37.5 318.74-37.5 318.74-18.75 331.24-18.75 331.24-37.5 343.74-37.5 343.74-18.75 337.49-18.75 337.49-12.5 331.24-12.5 331.24-6.25ZM443.73-6.25L406.23-6.25 406.23-50 418.73-50 418.73-12.5 443.73-12.5 443.73-6.25ZM493.73-6.25L456.23-6.25 456.23-12.5 449.98-12.5 449.98-18.75 456.23-18.75 456.23-25 481.23-25 481.23-31.25 456.23-31.25 456.23-37.5 487.48-37.5 487.48-31.25 493.73-31.25 493.73-6.25ZM462.48-18.75L462.48-12.5 481.23-12.5 481.23-18.75 462.48-18.75ZM537.48-6.25L506.23-6.25 506.23-12.5 499.98-12.5 499.98-50 512.48-50 512.48-37.5 537.48-37.5 537.48-31.25 543.73-31.25 543.73-12.5 537.48-12.5 537.48-6.25ZM512.48-31.25L512.48-12.5 531.23-12.5 531.23-31.25 512.48-31.25ZM587.47-6.25L549.97-6.25 549.97-12.5 581.22-12.5 581.22-18.75 556.22-18.75 556.22-25 549.97-25 549.97-31.25 556.22-31.25 556.22-37.5 587.47-37.5 587.47-31.25 562.47-31.25 562.47-25 587.47-25 587.47-18.75 593.72-18.75 593.72-12.5 587.47-12.5 587.47-6.25Z" opacity="1" transform="matrix(1,0,0,1,0,0)" fill="#000000" class="wordmark-text-0" data-fill-palette-color="primary" id="text-0"></path></svg></g></svg></g><g transform="matrix(1,0,0,1,0,76.2789123744)"><svg viewBox="0 0 395.52 18.1417004278272" height="18.1417004278272" width="395.52"><g transform="matrix(1,0,0,1,20,3.2)"><svg width="355.52" viewBox="3.25 -39.04 1485.09 49.05" height="11.7417004278272" data-palette-color="#010c80"><path d="M31.25-10.5L31.25-10.5Q31.25-8.33 30.42-6.42 29.59-4.52 28.16-3.09 26.73-1.66 24.83-0.83 22.92 0 20.75 0L20.75 0 3.25 0 3.25-35.01 20.75-35.01Q22.92-35.01 24.83-34.18 26.73-33.35 28.16-31.92 29.59-30.49 30.42-28.59 31.25-26.68 31.25-24.51L31.25-24.51Q31.25-23.54 30.98-22.51 30.71-21.48 30.22-20.53 29.74-19.58 29.05-18.8 28.37-18.02 27.54-17.5L27.54-17.5Q28.39-17.04 29.08-16.25 29.76-15.45 30.25-14.5 30.74-13.55 30.99-12.51 31.25-11.47 31.25-10.5ZM10.25-13.99L10.25-7.01 20.75-7.01Q21.48-7.01 22.12-7.28 22.75-7.54 23.23-8.02 23.71-8.5 23.97-9.13 24.24-9.77 24.24-10.5L24.24-10.5Q24.24-11.23 23.97-11.87 23.71-12.5 23.23-12.98 22.75-13.45 22.12-13.72 21.48-13.99 20.75-13.99L20.75-13.99 10.25-13.99ZM10.25-28L10.25-21 20.75-21Q21.48-21 22.12-21.26 22.75-21.53 23.23-22.01 23.71-22.49 23.97-23.13 24.24-23.78 24.24-24.51L24.24-24.51Q24.24-25.24 23.97-25.88 23.71-26.51 23.23-26.99 22.75-27.47 22.12-27.73 21.48-28 20.75-28L20.75-28 10.25-28ZM87.62 0L85.43-3.05Q84.62-2.32 83.7-1.67 82.79-1.03 81.79-0.55 80.79-0.07 79.73 0.21 78.66 0.49 77.56 0.49L77.56 0.49Q75.15 0.49 73.02-0.37 70.9-1.22 69.3-2.8 67.7-4.37 66.79-6.63 65.87-8.89 65.87-11.69L65.87-11.69 65.87-26.15 72.51-26.15 72.51-11.69Q72.51-10.38 72.91-9.34 73.32-8.3 74-7.59 74.68-6.88 75.6-6.52 76.51-6.15 77.56-6.15L77.56-6.15Q78.59-6.15 79.51-6.63 80.42-7.1 81.1-7.89 81.79-8.67 82.18-9.66 82.57-10.64 82.57-11.69L82.57-11.69 82.57-26.15 89.23-26.15 89.23 0 87.62 0ZM132.55-33.25L132.55-33.25Q132.55-32.32 132.19-31.52 131.84-30.71 131.23-30.11 130.62-29.52 129.8-29.16 128.98-28.81 128.05-28.81L128.05-28.81Q127.13-28.81 126.31-29.16 125.49-29.52 124.89-30.11 124.29-30.71 123.94-31.52 123.59-32.32 123.59-33.25L123.59-33.25Q123.59-34.16 123.94-34.97 124.29-35.79 124.89-36.39 125.49-36.99 126.31-37.34 127.13-37.7 128.05-37.7L128.05-37.7Q128.98-37.7 129.8-37.34 130.62-36.99 131.23-36.39 131.84-35.79 132.19-34.97 132.55-34.16 132.55-33.25ZM131.4-26.15L131.4 0 124.69 0 124.69-26.15 131.4-26.15ZM173.56-36.55L173.56 0 166.85 0 166.85-36.55 173.56-36.55ZM234.28-36.55L234.28 0 232.67 0 230.08-3.59Q229.13-2.73 228.07-1.99 227.01-1.25 225.83-0.7 224.66-0.15 223.43 0.17 222.2 0.49 220.93 0.49L220.93 0.49Q218.17 0.49 215.74-0.55 213.31-1.59 211.49-3.43 209.67-5.27 208.62-7.8 207.57-10.33 207.57-13.31L207.57-13.31Q207.57-16.26 208.62-18.8 209.67-21.34 211.49-23.19 213.31-25.05 215.74-26.1 218.17-27.15 220.93-27.15L220.93-27.15Q221.81-27.15 222.75-27 223.69-26.86 224.58-26.53 225.47-26.2 226.25-25.66 227.03-25.12 227.57-24.34L227.57-24.34 227.57-36.55 234.28-36.55ZM227.57-13.31L227.57-13.31Q227.57-14.67 227.04-15.95 226.52-17.24 225.62-18.23 224.71-19.21 223.5-19.81 222.29-20.41 220.93-20.41L220.93-20.41Q219.56-20.41 218.35-19.92 217.14-19.43 216.25-18.52 215.36-17.6 214.85-16.28 214.34-14.97 214.34-13.31L214.34-13.31Q214.34-11.87 214.85-10.57 215.36-9.28 216.25-8.3 217.14-7.32 218.35-6.76 219.56-6.2 220.93-6.2L220.93-6.2Q222.29-6.2 223.5-6.8 224.71-7.4 225.62-8.39 226.52-9.38 227.04-10.66 227.57-11.94 227.57-13.31ZM277.59-33.25L277.59-33.25Q277.59-32.32 277.24-31.52 276.89-30.71 276.28-30.11 275.67-29.52 274.85-29.16 274.03-28.81 273.1-28.81L273.1-28.81Q272.17-28.81 271.36-29.16 270.54-29.52 269.94-30.11 269.34-30.71 268.99-31.52 268.63-32.32 268.63-33.25L268.63-33.25Q268.63-34.16 268.99-34.97 269.34-35.79 269.94-36.39 270.54-36.99 271.36-37.34 272.17-37.7 273.1-37.7L273.1-37.7Q274.03-37.7 274.85-37.34 275.67-36.99 276.28-36.39 276.89-35.79 277.24-34.97 277.59-34.16 277.59-33.25ZM276.45-26.15L276.45 0 269.73 0 269.73-26.15 276.45-26.15ZM318.56-14.94L318.56 0 311.9 0 311.9-26.15 313.51-26.15 315.71-23.61Q317.32-25.07 319.36-25.87 321.39-26.66 323.62-26.66L323.62-26.66Q326.01-26.66 328.13-25.74 330.26-24.83 331.84-23.23 333.43-21.63 334.35-19.49 335.26-17.36 335.26-14.94L335.26-14.94 335.26 0 328.6 0 328.6-14.94Q328.6-15.97 328.21-16.88 327.81-17.8 327.13-18.48 326.45-19.17 325.54-19.56 324.64-19.95 323.62-19.95L323.62-19.95Q322.57-19.95 321.64-19.56 320.71-19.17 320.03-18.48 319.34-17.8 318.95-16.88 318.56-15.97 318.56-14.94L318.56-14.94ZM388.97-13.31L388.97-13.31Q388.97-14.67 388.45-15.95 387.92-17.24 387.02-18.23 386.12-19.21 384.91-19.81 383.7-20.41 382.33-20.41L382.33-20.41Q380.97-20.41 379.76-19.95 378.55-19.48 377.66-18.58 376.77-17.68 376.25-16.35 375.74-15.01 375.74-13.31L375.74-13.31Q375.74-11.67 376.25-10.36 376.77-9.06 377.66-8.13 378.55-7.2 379.76-6.7 380.97-6.2 382.33-6.2L382.33-6.2Q383.7-6.2 384.91-6.8 386.12-7.4 387.02-8.39 387.92-9.38 388.45-10.66 388.97-11.94 388.97-13.31ZM395.69-26.1L395.69-3.3Q395.69-0.54 394.64 1.88 393.59 4.3 391.77 6.1 389.95 7.91 387.52 8.96 385.09 10.01 382.33 10.01L382.33 10.01 378.99 9.96 378.99 3.3 382.28 3.34Q383.85 3.34 384.94 2.94 386.04 2.54 386.8 1.84 387.56 1.15 388.01 0.24 388.46-0.66 388.73-1.66L388.73-1.66Q388.34-1.03 387.61-0.62 386.87-0.22 385.98 0.04 385.09 0.29 384.13 0.39 383.16 0.49 382.33 0.49L382.33 0.49Q379.57 0.49 377.14-0.46 374.72-1.42 372.9-3.19 371.08-4.96 370.03-7.52 368.98-10.08 368.98-13.31L368.98-13.31Q368.98-16.26 370.03-18.8 371.08-21.34 372.9-23.19 374.72-25.05 377.14-26.1 379.57-27.15 382.33-27.15L382.33-27.15Q383.6-27.15 384.85-26.83 386.09-26.51 387.26-25.95 388.44-25.39 389.5-24.63 390.56-23.88 391.49-23L391.49-23 394.08-26.1 395.69-26.1ZM483.36-33.25L483.36-33.25Q483.36-32.32 483.01-31.52 482.65-30.71 482.04-30.11 481.43-29.52 480.61-29.16 479.8-28.81 478.87-28.81L478.87-28.81Q477.94-28.81 477.12-29.16 476.3-29.52 475.71-30.11 475.11-30.71 474.75-31.52 474.4-32.32 474.4-33.25L474.4-33.25Q474.4-34.16 474.75-34.97 475.11-35.79 475.71-36.39 476.3-36.99 477.12-37.34 477.94-37.7 478.87-37.7L478.87-37.7Q479.8-37.7 480.61-37.34 481.43-36.99 482.04-36.39 482.65-35.79 483.01-34.97 483.36-34.16 483.36-33.25ZM482.21-26.15L482.21 0 475.5 0 475.5-26.15 482.21-26.15ZM550.92-16.6L550.92 0 544.27 0 544.27-16.6Q544.27-17.29 544.02-17.9 543.76-18.51 543.3-18.97 542.83-19.43 542.22-19.69 541.61-19.95 540.93-19.95L540.93-19.95Q540.25-19.95 539.65-19.69 539.05-19.43 538.6-18.97 538.15-18.51 537.89-17.9 537.63-17.29 537.63-16.6L537.63-16.6 537.63 0 530.97 0 530.97-16.6Q530.97-17.29 530.71-17.9 530.46-18.51 529.99-18.97 529.53-19.43 528.92-19.69 528.31-19.95 527.62-19.95L527.62-19.95Q526.94-19.95 526.34-19.69 525.74-19.43 525.29-18.97 524.84-18.51 524.58-17.9 524.33-17.29 524.33-16.6L524.33-16.6 524.33 0 517.66 0 517.66-26.15 519.27-26.15 521.08-24.15Q522.47-25.32 524.15-25.96 525.82-26.61 527.62-26.61L527.62-26.61Q529.46-26.61 531.2-25.93 532.95-25.24 534.26-23.56L534.26-23.56Q534.88-24.39 535.66-24.98 536.44-25.56 537.3-25.93 538.17-26.29 539.1-26.45 540.03-26.61 540.93-26.61L540.93-26.61Q543.01-26.61 544.82-25.83 546.64-25.05 548-23.69 549.35-22.34 550.13-20.51 550.92-18.68 550.92-16.6L550.92-16.6ZM592.86-1.76L592.86 9.96 586.15 9.96 586.15-26.15 587.76-26.15 590.42-23Q591.32-23.85 592.4-24.61 593.47-25.37 594.63-25.92 595.79-26.46 597.03-26.78 598.28-27.1 599.55-27.1L599.55-27.1Q602.31-27.1 604.74-26.11 607.17-25.12 608.99-23.32 610.8-21.51 611.85-18.96 612.9-16.41 612.9-13.31L612.9-13.31Q612.9-10.08 611.85-7.51 610.8-4.93 608.99-3.14 607.17-1.34 604.74-0.39 602.31 0.56 599.55 0.56L599.55 0.56Q598.67 0.56 597.8 0.37 596.94 0.17 596.09-0.16 595.25-0.49 594.43-0.9 593.62-1.32 592.86-1.76L592.86-1.76ZM606.21-13.31L606.21-13.31Q606.21-14.97 605.69-16.28 605.16-17.6 604.26-18.52 603.36-19.43 602.14-19.92 600.92-20.41 599.55-20.41L599.55-20.41Q598.18-20.41 596.97-19.92 595.77-19.43 594.86-18.52 593.96-17.6 593.43-16.28 592.91-14.97 592.91-13.31L592.91-13.31Q592.91-11.72 593.43-10.4 593.96-9.08 594.86-8.15 595.77-7.23 596.97-6.71 598.18-6.2 599.55-6.2L599.55-6.2Q600.92-6.2 602.14-6.71 603.36-7.23 604.26-8.15 605.16-9.08 605.69-10.4 606.21-11.72 606.21-13.31ZM672.28-26.1L672.28 0 670.67 0 668.08-3.59Q667.13-2.73 666.07-1.99 665-1.25 663.83-0.7 662.66-0.15 661.43 0.17 660.2 0.49 658.93 0.49L658.93 0.49Q656.17 0.49 653.74-0.44 651.31-1.37 649.49-3.14 647.67-4.91 646.62-7.47 645.57-10.03 645.57-13.31L645.57-13.31Q645.57-16.36 646.62-18.91 647.67-21.46 649.49-23.29 651.31-25.12 653.74-26.14 656.17-27.15 658.93-27.15L658.93-27.15Q660.2-27.15 661.44-26.83 662.69-26.51 663.86-25.95 665.03-25.39 666.09-24.63 667.15-23.88 668.08-23L668.08-23 670.67-26.1 672.28-26.1ZM665.57-13.31L665.57-13.31Q665.57-14.67 665.04-15.95 664.52-17.24 663.61-18.23 662.71-19.21 661.5-19.81 660.29-20.41 658.93-20.41L658.93-20.41Q657.56-20.41 656.35-19.95 655.14-19.48 654.25-18.58 653.36-17.68 652.85-16.35 652.33-15.01 652.33-13.31L652.33-13.31Q652.33-11.6 652.85-10.27 653.36-8.94 654.25-8.03 655.14-7.13 656.35-6.67 657.56-6.2 658.93-6.2L658.93-6.2Q660.29-6.2 661.5-6.8 662.71-7.4 663.61-8.39 664.52-9.38 665.04-10.66 665.57-11.94 665.57-13.31ZM730.58-20.95L730.58-20.95 725.7-16.04Q725.33-17.07 724.7-17.88 724.06-18.7 723.27-19.26 722.48-19.82 721.55-20.12 720.62-20.41 719.64-20.41L719.64-20.41Q718.28-20.41 717.07-19.85 715.86-19.29 714.97-18.27 714.08-17.26 713.57-15.87 713.05-14.48 713.05-12.79L713.05-12.79Q713.05-11.43 713.57-10.23 714.08-9.03 714.97-8.13 715.86-7.23 717.07-6.71 718.28-6.2 719.64-6.2L719.64-6.2Q720.62-6.2 721.52-6.47 722.43-6.74 723.22-7.24 724.01-7.74 724.64-8.46 725.26-9.18 725.65-10.06L725.65-10.06 730.53-5.15Q729.61-3.83 728.4-2.78 727.19-1.73 725.78-1 724.38-0.27 722.83 0.11 721.28 0.49 719.64 0.49L719.64 0.49Q716.89 0.49 714.46-0.55 712.03-1.59 710.21-3.39 708.39-5.2 707.34-7.62 706.29-10.03 706.29-12.79L706.29-12.79Q706.29-15.8 707.34-18.41 708.39-21.02 710.21-22.96 712.03-24.9 714.46-26.03 716.89-27.15 719.64-27.15L719.64-27.15Q721.28-27.15 722.85-26.73 724.43-26.32 725.86-25.52 727.29-24.73 728.49-23.58 729.7-22.44 730.58-20.95ZM782.37 0L777.31 0Q774.89 0 772.77-0.92 770.65-1.83 769.05-3.43 767.45-5.03 766.53-7.15 765.62-9.28 765.62-11.69L765.62-11.69 765.62-19.46 762.37-19.46 762.37-26.1 765.62-26.1 765.62-36.55 772.26-36.55 772.26-26.1 782.37-26.1 782.37-19.46 772.26-19.46 772.26-11.69Q772.26-10.64 772.65-9.73 773.04-8.81 773.72-8.13 774.41-7.45 775.33-7.04 776.26-6.64 777.31-6.64L777.31-6.64 782.37-6.64 782.37 0ZM824.94-19.51L824.94 0 818.28 0 818.28-19.51 815.03-19.51 815.03-26.15 818.28-26.15 818.28-27.39Q818.28-29.81 819.2-31.93 820.11-34.06 821.71-35.63 823.31-37.21 825.43-38.12 827.56-39.04 829.97-39.04L829.97-39.04 834.98-39.04 834.98-32.4 829.97-32.4Q828.9-32.4 827.98-32.02 827.07-31.64 826.4-30.97 825.73-30.3 825.34-29.38 824.94-28.47 824.94-27.39L824.94-27.39 824.94-26.15 833.12-26.15 833.12-19.51 824.94-19.51ZM887.86 0L885.66-3.05Q884.86-2.32 883.94-1.67 883.03-1.03 882.03-0.55 881.02-0.07 879.96 0.21 878.9 0.49 877.8 0.49L877.8 0.49Q875.39 0.49 873.26-0.37 871.14-1.22 869.54-2.8 867.94-4.37 867.02-6.63 866.11-8.89 866.11-11.69L866.11-11.69 866.11-26.15 872.75-26.15 872.75-11.69Q872.75-10.38 873.15-9.34 873.55-8.3 874.24-7.59 874.92-6.88 875.84-6.52 876.75-6.15 877.8-6.15L877.8-6.15Q878.83-6.15 879.74-6.63 880.66-7.1 881.34-7.89 882.03-8.67 882.42-9.66 882.81-10.64 882.81-11.69L882.81-11.69 882.81-26.15 889.47-26.15 889.47 0 887.86 0ZM931.64-36.55L931.64 0 924.92 0 924.92-36.55 931.64-36.55ZM1025.8 0L1025.8 0 1010.57 0 1010.57-6.64 1025.8-6.64Q1026.49-6.64 1026.98-7.13 1027.46-7.62 1027.46-8.3L1027.46-8.3Q1027.46-9.01 1026.98-9.23 1026.49-9.45 1025.8-9.45L1025.8-9.45 1018.87-9.45Q1017.14-9.45 1015.62-10.11 1014.11-10.77 1012.99-11.9 1011.86-13.04 1011.22-14.55 1010.57-16.06 1010.57-17.8L1010.57-17.8Q1010.57-19.53 1011.22-21.04 1011.86-22.56 1012.99-23.68 1014.11-24.8 1015.62-25.45 1017.14-26.1 1018.87-26.1L1018.87-26.1 1032.37-26.1 1032.37-19.46 1018.87-19.46Q1018.19-19.46 1017.7-18.97 1017.21-18.48 1017.21-17.8L1017.21-17.8Q1017.21-17.09 1017.7-16.59 1018.19-16.09 1018.87-16.09L1018.87-16.09 1025.8-16.09Q1027.51-16.09 1029.03-15.52 1030.54-14.94 1031.66-13.92 1032.79-12.89 1033.45-11.45 1034.1-10.01 1034.1-8.3L1034.1-8.3Q1034.1-6.57 1033.45-5.07 1032.79-3.56 1031.66-2.43 1030.54-1.29 1029.03-0.65 1027.51 0 1025.8 0ZM1093.29-13.31L1093.29-13.31Q1093.29-10.38 1092.24-7.85 1091.19-5.32 1089.38-3.48 1087.57-1.64 1085.14-0.57 1082.71 0.49 1079.93 0.49L1079.93 0.49Q1077.17 0.49 1074.74-0.57 1072.31-1.64 1070.5-3.48 1068.68-5.32 1067.63-7.85 1066.58-10.38 1066.58-13.31L1066.58-13.31Q1066.58-16.28 1067.63-18.82 1068.68-21.36 1070.5-23.21 1072.31-25.05 1074.74-26.1 1077.17-27.15 1079.93-27.15L1079.93-27.15Q1082.71-27.15 1085.14-26.16 1087.57-25.17 1089.38-23.35 1091.19-21.53 1092.24-18.98 1093.29-16.43 1093.29-13.31ZM1086.57-13.31L1086.57-13.31Q1086.57-14.92 1086.05-16.22 1085.52-17.53 1084.62-18.47 1083.72-19.41 1082.51-19.91 1081.3-20.41 1079.93-20.41L1079.93-20.41Q1078.56-20.41 1077.36-19.91 1076.15-19.41 1075.26-18.47 1074.36-17.53 1073.85-16.22 1073.34-14.92 1073.34-13.31L1073.34-13.31Q1073.34-11.79 1073.85-10.5 1074.36-9.2 1075.26-8.25 1076.15-7.3 1077.36-6.75 1078.56-6.2 1079.93-6.2L1079.93-6.2Q1081.3-6.2 1082.51-6.71 1083.72-7.23 1084.62-8.15 1085.52-9.08 1086.05-10.4 1086.57-11.72 1086.57-13.31ZM1135.52-19.51L1135.52 0 1128.86 0 1128.86-19.51 1125.61-19.51 1125.61-26.15 1128.86-26.15 1128.86-27.39Q1128.86-29.81 1129.77-31.93 1130.69-34.06 1132.29-35.63 1133.89-37.21 1136.01-38.12 1138.14-39.04 1140.55-39.04L1140.55-39.04 1145.56-39.04 1145.56-32.4 1140.55-32.4Q1139.48-32.4 1138.56-32.02 1137.65-31.64 1136.98-30.97 1136.3-30.3 1135.91-29.38 1135.52-28.47 1135.52-27.39L1135.52-27.39 1135.52-26.15 1143.7-26.15 1143.7-19.51 1135.52-19.51ZM1195.39 0L1190.33 0Q1187.92 0 1185.79-0.92 1183.67-1.83 1182.07-3.43 1180.47-5.03 1179.56-7.15 1178.64-9.28 1178.64-11.69L1178.64-11.69 1178.64-19.46 1175.39-19.46 1175.39-26.1 1178.64-26.1 1178.64-36.55 1185.28-36.55 1185.28-26.1 1195.39-26.1 1195.39-19.46 1185.28-19.46 1185.28-11.69Q1185.28-10.64 1185.67-9.73 1186.06-8.81 1186.75-8.13 1187.43-7.45 1188.36-7.04 1189.28-6.64 1190.33-6.64L1190.33-6.64 1195.39-6.64 1195.39 0ZM1262.5-26.1L1262.5-9.45Q1262.5-7.4 1261.72-5.58 1260.94-3.76 1259.59-2.42 1258.23-1.07 1256.41-0.29 1254.59 0.49 1252.52 0.49L1252.52 0.49Q1250.66 0.49 1248.95-0.16 1247.24-0.81 1245.85-2.05L1245.85-2.05Q1244.49-0.81 1242.79-0.16 1241.09 0.49 1239.21 0.49L1239.21 0.49Q1237.14 0.49 1235.33-0.29 1233.52-1.07 1232.17-2.42 1230.81-3.76 1230.03-5.58 1229.25-7.4 1229.25-9.45L1229.25-9.45 1229.25-26.1 1235.92-26.1 1235.92-9.45Q1235.92-8.76 1236.17-8.17 1236.43-7.57 1236.88-7.12 1237.33-6.67 1237.93-6.41 1238.53-6.15 1239.21-6.15L1239.21-6.15Q1239.9-6.15 1240.51-6.41 1241.12-6.67 1241.58-7.12 1242.04-7.57 1242.3-8.17 1242.56-8.76 1242.56-9.45L1242.56-9.45 1242.56-26.1 1249.2-26.1 1249.2-9.45Q1249.2-8.76 1249.47-8.17 1249.73-7.57 1250.19-7.12 1250.64-6.67 1251.24-6.41 1251.83-6.15 1252.52-6.15L1252.52-6.15Q1253.2-6.15 1253.81-6.41 1254.42-6.67 1254.87-7.12 1255.33-7.57 1255.59-8.17 1255.86-8.76 1255.86-9.45L1255.86-9.45 1255.86-26.1 1262.5-26.1ZM1323.03-26.1L1323.03 0 1321.42 0 1318.83-3.59Q1317.88-2.73 1316.81-1.99 1315.75-1.25 1314.58-0.7 1313.41-0.15 1312.17 0.17 1310.94 0.49 1309.67 0.49L1309.67 0.49Q1306.91 0.49 1304.48-0.44 1302.06-1.37 1300.24-3.14 1298.42-4.91 1297.37-7.47 1296.32-10.03 1296.32-13.31L1296.32-13.31Q1296.32-16.36 1297.37-18.91 1298.42-21.46 1300.24-23.29 1302.06-25.12 1304.48-26.14 1306.91-27.15 1309.67-27.15L1309.67-27.15Q1310.94-27.15 1312.19-26.83 1313.43-26.51 1314.6-25.95 1315.78-25.39 1316.84-24.63 1317.9-23.88 1318.83-23L1318.83-23 1321.42-26.1 1323.03-26.1ZM1316.31-13.31L1316.31-13.31Q1316.31-14.67 1315.79-15.95 1315.26-17.24 1314.36-18.23 1313.46-19.21 1312.25-19.81 1311.04-20.41 1309.67-20.41L1309.67-20.41Q1308.31-20.41 1307.1-19.95 1305.89-19.48 1305-18.58 1304.11-17.68 1303.59-16.35 1303.08-15.01 1303.08-13.31L1303.08-13.31Q1303.08-11.6 1303.59-10.27 1304.11-8.94 1305-8.03 1305.89-7.13 1307.1-6.67 1308.31-6.2 1309.67-6.2L1309.67-6.2Q1311.04-6.2 1312.25-6.8 1313.46-7.4 1314.36-8.39 1315.26-9.38 1315.79-10.66 1316.31-11.94 1316.31-13.31ZM1365.14-14.4L1365.14 0 1358.48 0 1358.48-26.15 1360.09-26.15 1362.29-23.05Q1363.9-24.51 1365.95-25.31 1368-26.1 1370.2-26.1L1370.2-26.1 1376.08-26.1 1376.08-19.46 1370.2-19.46Q1369.15-19.46 1368.22-19.07 1367.29-18.68 1366.61-17.99 1365.92-17.31 1365.53-16.38 1365.14-15.45 1365.14-14.4L1365.14-14.4ZM1431.96-21.46L1419.46-6.4Q1419.86-6.27 1420.25-6.24 1420.64-6.2 1421.03-6.2L1421.03-6.2Q1422-6.2 1422.91-6.47 1423.81-6.74 1424.6-7.24 1425.4-7.74 1426.02-8.46 1426.64-9.18 1427.03-10.06L1427.03-10.06 1431.92-5.15Q1430.99-3.83 1429.78-2.78 1428.57-1.73 1427.17-1 1425.76-0.27 1424.21 0.11 1422.66 0.49 1421.03 0.49L1421.03 0.49Q1418.27 0.49 1415.84-0.54 1413.41-1.56 1411.59-3.39 1409.77-5.22 1408.72-7.75 1407.67-10.28 1407.67-13.31L1407.67-13.31Q1407.67-16.41 1408.72-18.97 1409.77-21.53 1411.59-23.34 1413.41-25.15 1415.84-26.15 1418.27-27.15 1421.03-27.15L1421.03-27.15Q1422.66-27.15 1424.23-26.76 1425.79-26.37 1427.19-25.63 1428.6-24.9 1429.82-23.84 1431.04-22.78 1431.96-21.46L1431.96-21.46ZM1415.12-9.84L1422.88-20.14Q1422.42-20.31 1421.97-20.36 1421.52-20.41 1421.03-20.41L1421.03-20.41Q1419.66-20.41 1418.45-19.91 1417.24-19.41 1416.35-18.48 1415.46-17.55 1414.95-16.25 1414.44-14.94 1414.44-13.31L1414.44-13.31Q1414.44-12.94 1414.47-12.48 1414.51-12.01 1414.59-11.54 1414.68-11.06 1414.8-10.62 1414.92-10.18 1415.12-9.84L1415.12-9.84ZM1480.04 0L1480.04 0 1464.8 0 1464.8-6.64 1480.04-6.64Q1480.72-6.64 1481.21-7.13 1481.7-7.62 1481.7-8.3L1481.7-8.3Q1481.7-9.01 1481.21-9.23 1480.72-9.45 1480.04-9.45L1480.04-9.45 1473.1-9.45Q1471.37-9.45 1469.86-10.11 1468.34-10.77 1467.22-11.9 1466.1-13.04 1465.45-14.55 1464.8-16.06 1464.8-17.8L1464.8-17.8Q1464.8-19.53 1465.45-21.04 1466.1-22.56 1467.22-23.68 1468.34-24.8 1469.86-25.45 1471.37-26.1 1473.1-26.1L1473.1-26.1 1486.6-26.1 1486.6-19.46 1473.1-19.46Q1472.42-19.46 1471.93-18.97 1471.44-18.48 1471.44-17.8L1471.44-17.8Q1471.44-17.09 1471.93-16.59 1472.42-16.09 1473.1-16.09L1473.1-16.09 1480.04-16.09Q1481.75-16.09 1483.26-15.52 1484.77-14.94 1485.9-13.92 1487.02-12.89 1487.68-11.45 1488.34-10.01 1488.34-8.3L1488.34-8.3Q1488.34-6.57 1487.68-5.07 1487.02-3.56 1485.9-2.43 1484.77-1.29 1483.26-0.65 1481.75 0 1480.04 0Z" opacity="1" transform="matrix(1,0,0,1,0,0)" fill="#ffffff" class="slogan-text-1" data-fill-palette-color="quaternary" id="text-1"></path></svg></g></svg></g></svg></g></svg></g></svg></g><defs></defs></svg><rect width="395.52" height="94.4206128022272" fill="none" stroke="none" visibility="hidden"></rect></g></svg></g></svg>